<svg width="135" height="40" viewBox="0 0 135 40" version="1.1" xmlns="http://www.w3.org/2000/svg" xmlns:xlink="http://www.w3.org/1999/xlink">
<title>Download_on_the_App_Store_Badge_US-UK_135x40-d0558d9106</title>
<desc>Created using Figma</desc>
<g id="Canvas" transform="translate(175 -1346)">
<g id="Download_on_the_App_Store_Badge_US-UK_135x40-d0558d9106">
<g id="Shape">
<use xlink:href="#path0_fill" transform="translate(-175 1346)" fill="#A6A6A6"/>
</g>
<g id="Shape">
<use xlink:href="#path1_fill" transform="translate(-174.11 1346.89)"/>
</g>
<g id="Group">
<g id="Shape">
<use xlink:href="#path2_fill" transform="translate(-162.208 1358.37)" fill="#FFFFFF"/>
</g>
<g id="Shape">
<use xlink:href="#path3_fill" transform="translate(-151.894 1352.22)" fill="#FFFFFF"/>
</g>
</g>
<g id="Group">
<g id="Shape">
<use xlink:href="#path4_fill" transform="translate(-132.59 1364.2)" fill="#FFFFFF"/>
</g>
<g id="Shape">
<use xlink:href="#path5_fill" transform="translate(-119.579 1367.71)" fill="#FFFFFF"/>
</g>
<g id="Shape">
<use xlink:href="#path6_fill" transform="translate(-108.541 1367.71)" fill="#FFFFFF"/>
</g>
<g id="Shape">
<use xlink:href="#path7_fill" transform="translate(-95.217 1364)" fill="#FFFFFF"/>
</g>
<g id="Shape">
<use xlink:href="#path8_fill" transform="translate(-85.756 1365.52)" fill="#FFFFFF"/>
</g>
<g id="Shape">
<use xlink:href="#path9_fill" transform="translate(-78.708 1367.71)" fill="#FFFFFF"/>
</g>
<g id="Shape">
<use xlink:href="#path10_fill" transform="translate(-67.513 1367.71)" fill="#FFFFFF"/>
</g>
<g id="Shape">
<use xlink:href="#path11_fill" transform="translate(-61.372 1367.69)" fill="#FFFFFF"/>
</g>
</g>
<g id="Group">
<g id="Shape">
<use xlink:href="#path12_fill" transform="translate(-131.324 1352.85)" fill="#FFFFFF"/>
</g>
<g id="Shape">
<use xlink:href="#path13_fill" transform="translate(-124.708 1354.62)" fill="#FFFFFF"/>
</g>
<g id="Shape">
<use xlink:href="#path14_fill" transform="translate(-119.065 1354.72)" fill="#FFFFFF"/>
</g>
<g id="Shape">
<use xlink:href="#path15_fill" transform="translate(-110.934 1354.62)" fill="#FFFFFF"/>
</g>
<g id="Shape">
<use xlink:href="#path16_fill" transform="translate(-104.959 1352.56)" fill="#FFFFFF"/>
</g>
<g id="Shape">
<use xlink:href="#path17_fill" transform="translate(-102.359 1354.62)" fill="#FFFFFF"/>
</g>
<g id="Shape">
<use xlink:href="#path18_fill" transform="translate(-96.54 1354.62)" fill="#FFFFFF"/>
</g>
<g id="Shape">
<use xlink:href="#path19_fill" transform="translate(-91.215 1352.56)" fill="#FFFFFF"/>
</g>
<g id="Shape">
<use xlink:href="#path20_fill" transform="translate(-82.369 1354.62)" fill="#FFFFFF"/>
</g>
<g id="Shape">
<use xlink:href="#path21_fill" transform="translate(-76.248 1354.62)" fill="#FFFFFF"/>
</g>
<g id="Shape">
<use xlink:href="#path22_fill" transform="translate(-67.935 1353.55)" fill="#FFFFFF"/>
</g>
<g id="Shape">
<use xlink:href="#path23_fill" transform="translate(-63.61 1352.56)" fill="#FFFFFF"/>
</g>
<g id="Shape">
<use xlink:href="#path24_fill" transform="translate(-57.984 1354.61)" fill="#FFFFFF"/>
</g>
</g>
</g>
</g>
<defs>
<path id="path0_fill" d="M 130.197 40L 4.729 40C 2.122 40 0 37.872 0 35.267L 0 4.726C 0 2.12 2.122 0 4.729 0L 130.197 0C 132.803 0 135 2.12 135 4.726L 135 35.267C 135 37.872 132.803 40 130.197 40Z"/>
<path id="path1_fill" d="M 133.142 34.378C 133.142 36.494 131.428 38.208 129.308 38.208L 3.839 38.208C 1.72 38.208 0 36.494 0 34.378L 0 3.835C 0 1.72 1.72 0 3.839 0L 129.307 0C 131.428 0 133.141 1.72 133.141 3.835L 133.142 34.378Z"/>
<path id="path2_fill" d="M 17.3361 7.4131C 17.3071 4.1901 19.9751 2.6221 20.0971 2.5491C 18.5861 0.346103 16.2441 0.0451035 15.4211 0.0211035C 13.4541 -0.185897 11.5461 1.1981 10.5441 1.1981C 9.5221 1.1981 7.9791 0.0411035 6.3161 0.0751035C 4.1761 0.108103 2.1741 1.3471 1.0761 3.2711C -1.1899 7.1941 0.500096 12.9591 2.6711 16.1301C 3.7571 17.6831 5.0261 19.4171 6.6871 19.3561C 8.3121 19.2891 8.9191 18.3201 10.8801 18.3201C 12.8231 18.3201 13.3931 19.3561 15.0871 19.3171C 16.8311 19.2891 17.9291 17.7571 18.9771 16.1901C 20.2321 14.4101 20.7361 12.6571 20.7561 12.5671C 20.7151 12.5531 17.3691 11.2761 17.3361 7.4131Z"/>
<path id="path3_fill" d="M 3.82159 4.089C 4.69559 2.996 5.29359 1.509 5.12759 0C 3.86259 0.056 2.28059 0.875 1.36959 1.944C 0.563594 2.886 -0.156406 4.43 0.0295942 5.882C 1.45059 5.988 2.90959 5.165 3.82159 4.089Z"/>
<path id="path4_fill" fill-rule="evenodd" d="M 8.964 13.308L 11.235 13.308L 6.93 0L 4.284 0L 0 13.308L 2.211 13.308L 3.396 9.39905L 7.72 9.39905L 8.964 13.308ZM 6.22 4.28394L 7.345 7.75903L 3.772 7.75903L 4.87701 4.28394C 5.167 3.17896 5.37801 2.34302 5.509 1.77698L 5.549 1.77698C 5.87801 3.09302 6.10101 3.92896 6.22 4.28394Z"/>
<path id="path5_fill" fill-rule="evenodd" d="M 7.918 8.74597C 8.8 7.79895 9.241 6.50903 9.241 4.87695C 9.241 3.41602 8.863 2.23804 8.105 1.34204C 7.349 0.447021 6.404 0 5.272 0C 3.824 0 2.745 0.572021 2.034 1.71802L 1.994 1.71802L 1.875 0.197021L 0 0.197021C 0.052002 1.27698 0.0790024 2.32996 0.0790024 3.35596L 0.0790024 13.703L 2.211 13.703L 2.211 8.64795L 2.251 8.64795C 2.804 9.55603 3.712 10.01 4.976 10.01C 6.147 10.01 7.128 9.58899 7.918 8.74597ZM 6.437 2.64502C 6.859 3.25098 7.069 4.021 7.069 4.95508C 7.069 5.96899 6.845 6.78503 6.397 7.40405C 5.95 8.02197 5.325 8.33203 4.522 8.33203C 3.838 8.33203 3.282 8.09204 2.854 7.61096C 2.42599 7.13 2.212 6.54102 2.212 5.84302L 2.212 4.24304C 2.212 4.073 2.245 3.85706 2.311 3.59302C 2.442 3.02698 2.722 2.57007 3.15 2.21997C 3.577 1.87305 4.055 1.69702 4.581 1.69702C 5.35699 1.69702 5.976 2.01306 6.437 2.64502Z"/>
<path id="path6_fill" fill-rule="evenodd" d="M 7.916 8.74597C 8.799 7.79895 9.24 6.50903 9.24 4.87695C 9.24 3.41602 8.861 2.23804 8.106 1.34204C 7.348 0.447021 6.403 0 5.272 0C 3.823 0 2.744 0.572021 2.034 1.71802L 1.994 1.71802L 1.875 0.197021L 0 0.197021C 0.052002 1.27698 0.0790024 2.32996 0.0790024 3.35596L 0.0790024 13.703L 2.211 13.703L 2.211 8.64795L 2.251 8.64795C 2.803 9.55603 3.711 10.01 4.975 10.01C 6.146 10.01 7.127 9.58899 7.916 8.74597ZM 6.435 2.64502C 6.857 3.25098 7.068 4.021 7.068 4.95508C 7.068 5.96899 6.844 6.78503 6.396 7.40405C 5.949 8.02197 5.324 8.33203 4.521 8.33203C 3.835 8.33203 3.279 8.09106 2.851 7.61096C 2.425 7.13 2.211 6.54102 2.211 5.84302L 2.211 4.24304C 2.211 4.073 2.245 3.85706 2.31 3.59302C 2.441 3.02698 2.72 2.57007 3.14799 2.21997C 3.576 1.87305 4.053 1.69702 4.58 1.69702C 5.357 1.69702 5.974 2.01306 6.435 2.64502Z"/>
<path id="path7_fill" d="M 8.256 9.771C 8.256 10.903 7.863 11.824 7.074 12.535C 6.207 13.312 5 13.7 3.449 13.7C 2.017 13.7 0.869 13.424 0 12.871L 0.494 11.094C 1.43 11.66 2.457 11.944 3.576 11.944C 4.379 11.944 5.004 11.762 5.453 11.4C 5.9 11.038 6.123 10.552 6.123 9.946C 6.123 9.406 5.939 8.951 5.57 8.582C 5.203 8.213 4.59 7.87 3.734 7.553C 1.404 6.684 0.24 5.411 0.24 3.737C 0.24 2.643 0.648 1.746 1.465 1.048C 2.279 0.349 3.365 0 4.723 0C 5.934 0 6.94 0.211 7.743 0.632L 7.21 2.37C 6.46 1.962 5.612 1.758 4.663 1.758C 3.913 1.758 3.327 1.943 2.907 2.311C 2.552 2.64 2.374 3.041 2.374 3.516C 2.374 4.042 2.577 4.477 2.985 4.819C 3.34 5.135 3.985 5.477 4.921 5.846C 6.066 6.307 6.907 6.846 7.448 7.464C 7.987 8.08 8.256 8.851 8.256 9.771Z"/>
<path id="path8_fill" d="M 5.844 3.991L 3.494 3.991L 3.494 8.65C 3.494 9.835 3.908 10.427 4.738 10.427C 5.119 10.427 5.435 10.394 5.685 10.328L 5.744 11.947C 5.324 12.104 4.771 12.183 4.086 12.183C 3.244 12.183 2.586 11.926 2.111 11.413C 1.638 10.899 1.4 10.037 1.4 8.826L 1.4 3.989L 0 3.989L 0 2.389L 1.4 2.389L 1.4 0.632L 3.494 0L 3.494 2.389L 5.844 2.389L 5.844 3.991Z"/>
<path id="path9_fill" fill-rule="evenodd" d="M 8.135 8.54797C 8.977 7.60095 9.399 6.39001 9.399 4.91504C 9.399 3.47998 8.991 2.30896 8.173 1.40198C 7.318 0.467041 6.185 0 4.777 0C 3.316 0 2.154 0.473999 1.293 1.422C 0.43 2.36902 0 3.58704 0 5.07397C 0 6.495 0.417999 7.67395 1.254 8.60803C 2.09 9.54199 3.211 10.009 4.619 10.009C 6.08 10.009 7.252 9.52295 8.135 8.54797ZM 6.61501 2.70691C 6.998 3.33997 7.187 4.099 7.187 4.98401C 7.187 5.86792 6.98901 6.63501 6.596 7.27991C 6.135 8.05798 5.496 8.448 4.68201 8.448C 3.85101 8.448 3.207 8.06592 2.746 7.29993C 2.36301 6.66797 2.174 5.90894 2.174 5.02393C 2.174 4.11194 2.36301 3.34094 2.746 2.70691C 3.193 1.94202 3.844 1.55896 4.701 1.55896C 5.52901 1.55896 6.16801 1.94092 6.61501 2.70691Z"/>
<path id="path10_fill" d="M 5.134 2.072C 4.923 2.033 4.698 2.013 4.462 2.013C 3.712 2.013 3.132 2.296 2.724 2.863C 2.369 3.363 2.191 3.995 2.191 4.758L 2.191 9.793L 0.06 9.793L 0.08 3.219C 0.08 2.113 0.053 1.106 0 0.198L 1.857 0.198L 1.935 2.034L 1.994 2.034C 2.219 1.403 2.574 0.895 3.06 0.514C 3.535 0.171 4.048 0 4.601 0C 4.798 0 4.976 0.014 5.134 0.039L 5.134 2.072Z"/>
<path id="path11_fill" fill-rule="evenodd" d="M 8.45 5.526C 8.503 5.26294 8.528 4.94104 8.528 4.55896C 8.528 3.36206 8.245 2.354 7.682 1.53894C 6.971 0.512939 5.924 0 4.541 0C 3.133 0 2.014 0.512939 1.186 1.53894C 0.395 2.5 0 3.70496 0 5.15198C 0 6.62598 0.424999 7.80103 1.273 8.67603C 2.123 9.55103 3.291 9.98901 4.779 9.98901C 6.016 9.98901 7.088 9.79199 7.996 9.396L 7.662 7.91602C 6.885 8.21899 6.021 8.37 5.074 8.37C 4.218 8.37 3.521 8.146 2.982 7.69897C 2.388 7.19897 2.079 6.474 2.054 5.526L 8.45 5.526ZM 6.081 2.36707C 6.37 2.828 6.509 3.37402 6.495 4.00598L 6.495 4.005L 2.054 4.005C 2.119 3.36108 2.33 2.80798 2.685 2.34705C 3.118 1.76697 3.685 1.47803 4.382 1.47803C 5.145 1.47803 5.712 1.77405 6.081 2.36707Z"/>
<path id="path12_fill" fill-rule="evenodd" d="M 4.316 5.82104C 5.021 5.22595 5.374 4.33997 5.374 3.16296C 5.374 2.11499 5.047 1.31006 4.395 0.746948C 3.813 0.249023 2.95 0 1.80499 0C 1.157 0 0.557007 0.0460205 0 0.135986L 0 6.56702C 0.427002 6.61902 0.936996 6.64502 1.533 6.64502C 2.735 6.64502 3.663 6.37 4.316 5.82104ZM 3.663 1.43591C 4.067 1.84399 4.269 2.42896 4.269 3.19189C 4.269 4.0459 4.049 4.69592 3.61301 5.14197C 3.177 5.58789 2.558 5.81091 1.756 5.81091C 1.41301 5.81091 1.177 5.802 1.048 5.78198L 1.048 0.892944C 1.28101 0.846924 1.56201 0.824951 1.892 0.824951C 2.66901 0.824951 3.259 1.02893 3.663 1.43591Z"/>
<path id="path13_fill" fill-rule="evenodd" d="M 3.996 4.19897C 4.41 3.73303 4.617 3.13904 4.617 2.41394C 4.617 1.70996 4.416 1.13403 4.016 0.687988C 3.595 0.229004 3.039 0 2.347 0C 1.629 0 1.059 0.233032 0.635002 0.697998C 0.210999 1.16296 0 1.76196 0 2.49194C 0 3.18994 0.205002 3.76904 0.614998 4.22803C 1.026 4.68799 1.577 4.91699 2.269 4.91699C 2.987 4.91699 3.562 4.67798 3.996 4.19897ZM 3.249 1.32898C 3.436 1.64001 3.53 2.01306 3.53 2.448C 3.53 2.88306 3.433 3.25903 3.239 3.57605C 3.013 3.95898 2.69901 4.15002 2.299 4.15002C 1.891 4.15002 1.575 3.96204 1.348 3.58606C 1.161 3.27502 1.067 2.90198 1.067 2.46704C 1.067 2.01904 1.16 1.64001 1.348 1.32898C 1.568 0.953003 1.888 0.765015 2.309 0.765015C 2.716 0.765015 3.029 0.953003 3.249 1.32898Z"/>
<path id="path14_fill" d="M 6.83 0L 5.355 4.714L 4.395 4.714L 3.784 2.667C 3.629 2.156 3.503 1.648 3.405 1.144L 3.386 1.144C 3.295 1.662 3.169 2.169 3.007 2.667L 2.358 4.714L 1.387 4.714L 0 0L 1.077 0L 1.61 2.241C 1.739 2.771 1.845 3.276 1.93 3.754L 1.949 3.754C 2.027 3.36 2.156 2.858 2.338 2.251L 3.007 0.001L 3.861 0.001L 4.502 2.203C 4.657 2.74 4.783 3.257 4.88 3.755L 4.909 3.755C 4.98 3.27 5.087 2.753 5.229 2.203L 5.801 0.001L 6.83 0.001L 6.83 0Z"/>
<path id="path15_fill" d="M 4.132 4.813L 3.084 4.813L 3.084 2.113C 3.084 1.281 2.768 0.865 2.134 0.865C 1.823 0.865 1.572 0.979 1.377 1.208C 1.184 1.437 1.086 1.707 1.086 2.016L 1.086 4.812L 0.038 4.812L 0.038 1.446C 0.038 1.032 0.025 0.583 0 0.097L 0.921 0.097L 0.97 0.834L 0.999 0.834C 1.121 0.605 1.303 0.416 1.542 0.265C 1.826 0.089 2.144 0 2.492 0C 2.932 0 3.298 0.142 3.589 0.427C 3.951 0.776 4.132 1.297 4.132 1.989L 4.132 4.813Z"/>
<path id="path16_fill" d="M 1.047 6.877L 0 6.877L 0 0L 1.047 0L 1.047 6.877Z"/>
<path id="path17_fill" fill-rule="evenodd" d="M 3.996 4.19897C 4.41 3.73303 4.617 3.13904 4.617 2.41394C 4.617 1.70996 4.416 1.13403 4.016 0.687988C 3.594 0.229004 3.039 0 2.346 0C 1.629 0 1.059 0.233032 0.635002 0.697998C 0.210999 1.16296 0 1.76196 0 2.49194C 0 3.18994 0.205002 3.76904 0.614998 4.22803C 1.025 4.68799 1.576 4.91699 2.269 4.91699C 2.986 4.91699 3.562 4.67798 3.996 4.19897ZM 3.248 1.32898C 3.435 1.64001 3.529 2.01306 3.529 2.448C 3.529 2.88306 3.433 3.25903 3.238 3.57605C 3.012 3.95898 2.69901 4.15002 2.299 4.15002C 1.891 4.15002 1.575 3.96204 1.348 3.58606C 1.161 3.27502 1.067 2.90198 1.067 2.46704C 1.067 2.01904 1.16 1.64001 1.348 1.32898C 1.567 0.953003 1.887 0.765015 2.309 0.765015C 2.715 0.765015 3.029 0.953003 3.248 1.32898Z"/>
<path id="path18_fill" fill-rule="evenodd" d="M 2.929 4.81006L 3.87 4.81006C 3.825 4.53198 3.802 4.15698 3.802 3.68604L 3.802 1.94995C 3.802 0.650024 3.184 0 1.952 0C 1.314 0 0.773003 0.135986 0.334999 0.406982L 0.547997 1.09497C 0.902 0.863037 1.312 0.745972 1.777 0.745972C 2.43 0.745972 2.756 1.05603 2.756 1.677L 2.756 1.76501C 1.883 1.75806 1.205 1.90698 0.723 2.21106C 0.239998 2.51501 0 2.95398 0 3.53003C 0 3.91101 0.123001 4.23206 0.369003 4.48999C 0.639999 4.77405 1 4.91699 1.445 4.91699C 2.041 4.91699 2.5 4.69995 2.822 4.26697L 2.851 4.26697L 2.929 4.81006ZM 2.782 2.46301L 2.782 3.19006C 2.782 3.26111 2.77599 3.323 2.765 3.37402C 2.71999 3.60107 2.599 3.78601 2.40199 3.93201C 2.20599 4.07703 1.991 4.15002 1.76099 4.15002C 1.556 4.15002 1.384 4.08899 1.24899 3.96606C 1.114 3.84302 1.048 3.65906 1.048 3.41309C 1.048 2.76001 1.626 2.44299 2.782 2.46301Z"/>
<path id="path19_fill" fill-rule="evenodd" d="M 3.57 6.87695L 4.5 6.87695C 4.475 6.48901 4.463 6.06604 4.463 5.60706L 4.463 0L 3.414 0L 3.414 2.70605L 3.394 2.70605C 3.142 2.27905 2.699 2.06604 2.066 2.06604C 1.49 2.06604 1.006 2.28601 0.611 2.72595C 0.203003 3.198 0 3.81604 0 4.57898C 0 5.29004 0.186996 5.86902 0.561996 6.31494C 0.936996 6.76099 1.41 6.98401 1.978 6.98401C 2.689 6.98401 3.195 6.69604 3.492 6.12L 3.521 6.12L 3.57 6.87695ZM 3.41399 4.10303L 3.41399 4.88904C 3.41399 5.22498 3.31499 5.51294 3.113 5.75195C 2.904 6.01099 2.629 6.14001 2.285 6.14001C 1.902 6.14001 1.596 5.98499 1.369 5.67493C 1.154 5.38403 1.047 5.00598 1.047 4.54004C 1.047 4.05493 1.16 3.65796 1.383 3.34692C 1.60799 3.03601 1.91399 2.88098 2.305 2.88098C 2.576 2.88098 2.811 2.96704 3.006 3.13794C 3.199 3.30896 3.326 3.521 3.38499 3.77295C 3.404 3.85693 3.41399 3.96704 3.41399 4.10303Z"/>
<path id="path20_fill" fill-rule="evenodd" d="M 3.996 4.19897C 4.41 3.73303 4.617 3.13904 4.617 2.41394C 4.617 1.70996 4.416 1.13403 4.016 0.687988C 3.596 0.229004 3.039 0 2.348 0C 1.629 0 1.059 0.233032 0.635002 0.697998C 0.210999 1.16296 0 1.76196 0 2.49194C 0 3.18994 0.205002 3.76904 0.614998 4.22803C 1.027 4.68799 1.578 4.91699 2.269 4.91699C 2.988 4.91699 3.562 4.67798 3.996 4.19897ZM 3.25 1.32898C 3.437 1.64001 3.531 2.01306 3.531 2.448C 3.531 2.88306 3.433 3.25903 3.24 3.57605C 3.014 3.95898 2.69901 4.15002 2.299 4.15002C 1.891 4.15002 1.575 3.96204 1.348 3.58606C 1.161 3.27502 1.067 2.90198 1.067 2.46704C 1.067 2.01904 1.16 1.64001 1.348 1.32898C 1.569 0.953003 1.889 0.765015 2.309 0.765015C 2.717 0.765015 3.029 0.953003 3.25 1.32898Z"/>
<path id="path21_fill" d="M 4.131 4.813L 3.084 4.813L 3.084 2.113C 3.084 1.281 2.768 0.865 2.133 0.865C 1.822 0.865 1.571 0.979 1.377 1.208C 1.183 1.437 1.086 1.707 1.086 2.016L 1.086 4.812L 0.037 4.812L 0.037 1.446C 0.037 1.032 0.025 0.583 0 0.097L 0.92 0.097L 0.969 0.834L 0.998 0.834C 1.121 0.605 1.303 0.416 1.541 0.265C 1.826 0.089 2.143 0 2.492 0C 2.931 0 3.297 0.142 3.588 0.427C 3.951 0.776 4.131 1.297 4.131 1.989L 4.131 4.813Z"/>
<path id="path22_fill" d="M 2.871 1.959L 1.717 1.959L 1.717 4.249C 1.717 4.831 1.922 5.122 2.328 5.122C 2.516 5.122 2.672 5.106 2.795 5.073L 2.822 5.868C 2.615 5.946 2.343 5.985 2.008 5.985C 1.594 5.985 1.272 5.859 1.039 5.607C 0.805 5.355 0.689 4.931 0.689 4.336L 0.689 1.959L 0 1.959L 0 1.174L 0.689 1.174L 0.689 0.31L 1.716 0L 1.716 1.173L 2.87 1.173L 2.87 1.959L 2.871 1.959Z"/>
<path id="path23_fill" d="M 4.094 6.877L 3.045 6.877L 3.045 4.197C 3.045 3.352 2.729 2.929 2.096 2.929C 1.61 2.929 1.278 3.174 1.096 3.664C 1.065 3.767 1.047 3.893 1.047 4.041L 1.047 6.876L 0 6.876L 0 0L 1.047 0L 1.047 2.841L 1.067 2.841C 1.397 2.324 1.87 2.066 2.483 2.066C 2.917 2.066 3.276 2.208 3.561 2.493C 3.916 2.848 4.094 3.376 4.094 4.074L 4.094 6.877Z"/>
<path id="path24_fill" fill-rule="evenodd" d="M 4.152 2.71399C 4.177 2.58496 4.191 2.427 4.191 2.23901C 4.191 1.651 4.052 1.15601 3.771 0.755981C 3.423 0.251953 2.908 0 2.23 0C 1.537 0 0.987999 0.251953 0.582001 0.755981C 0.193001 1.22803 0 1.81995 0 2.53101C 0 3.255 0.207001 3.83203 0.625 4.26196C 1.041 4.69202 1.616 4.90698 2.346 4.90698C 2.955 4.90698 3.481 4.81006 3.928 4.61597L 3.764 3.88794C 3.382 4.03699 2.958 4.11096 2.493 4.11096C 2.073 4.11096 1.73 4.00098 1.464 3.78101C 1.173 3.53503 1.023 3.18005 1.009 2.71399L 4.152 2.71399ZM 2.988 1.16296C 3.13 1.38892 3.199 1.65698 3.191 1.9679L 1.009 1.9679C 1.043 1.651 1.146 1.38 1.32 1.15295C 1.533 0.86792 1.812 0.725952 2.154 0.725952C 2.529 0.725952 2.806 0.871948 2.988 1.16296Z"/>
</defs>
</svg>
